<?xml version="1.0" encoding="UTF-8"?>
<svg id="Capa_4" data-name="Capa 4" xmlns="http://www.w3.org/2000/svg" viewBox="0 0 817 370">
  <path d="m362.19,41.64h-5.1c-13.71,0-24.82,11.11-24.82,24.82v163.98c0,13.71,11.12,24.83,24.83,24.83h5.09c13.71,0,24.82-11.11,24.82-24.82V66.46c0-13.71-11.11-24.82-24.82-24.82Z" style="fill: #e7c237; stroke-width: 0px;"/>
  <path d="m594.03,248.04c.06-4.51-2.68-10.19-4.96-14.29,0-3.42-5.76-10.34-7.48-13.42-7.75-13.91-15.41-27.87-22.99-41.87-.8-1.48-1.62-3.05-1.54-4.73.18-3.55,9.19-8.15,11.7-10.6,4.21-4.12,7.84-8.81,10.78-13.91,5.58-9.68,8.36-21.31,8.36-34.89s-3.17-26.79-9.5-37.79c-6.33-10.99-15.18-19.55-26.53-25.7-11.35-6.12-24.37-9.19-39.06-9.19h-76.29c-8.84,0-16.01,7.17-16.01,16.01v181.6c0,8.85,7.17,16.02,16.02,16.02h22.69c8.85,0,16.02-7.17,16.02-16.02v-43.72c0-4.63,3.75-8.38,8.38-8.38h13.67c.42,0,.82,0,1.2,0,3.28-.02,6.27,1.86,7.66,4.83,4,8.54,7.99,17.09,11.99,25.63,3.02,6.45,6.03,12.9,9.05,19.34,2.1,4.49,2.76,9.89,5.93,13.85,3.34,4.17,8.88,4.54,13.82,4.58,7.26,0,14.54.02,21.8.1,5.74.06,11.49.3,17.22-.17,5.97-.49,8.01-3.46,8.05-7.27Zm-64.81-120.65c-2.12,4.05-5.07,7.3-8.82,9.73-3.76,2.43-7.96,3.65-12.61,3.65h-30.99c-.86,0-1.55-.7-1.55-1.55v-48.13c0-.86.7-1.55,1.55-1.55h31.45c6.79,0,12.51,2.15,17.18,6.45,4.66,4.32,6.99,10.47,6.99,18.48,0,4.56-1.06,8.87-3.19,12.92Z" style="fill: #e7c237; stroke-width: 0px;"/>
  <path d="m801.46,95.72c-9.37-16.17-22.16-28.95-38.37-38.37-16.21-9.42-34.17-14.12-53.87-14.12s-37.82,4.68-54.03,14.04c-16.21,9.38-28.99,22.16-38.35,38.37-9.37,16.21-14.05,34.02-14.05,53.44s4.68,37.23,14.05,53.44c9.37,16.21,22.17,29.07,38.43,38.58,16.25,9.51,34.23,14.27,53.95,14.27s37.54-4.75,53.79-14.27c16.26-9.51,29.08-22.4,38.45-38.66,9.37-16.25,14.05-34.05,14.05-53.36s-4.68-37.2-14.05-53.36Zm-46.19,81.94c-8.71,14.35-24.11,24.69-40.86,26.41-32.21,3.31-58.48-23.39-58.48-54.84,0-10.29,2.44-19.7,7.35-28.25,16.89-29.39,54.48-35.65,80.39-13.2,16.05,13.92,23.06,37.51,16.97,57.86-1.27,4.23-3.09,8.26-5.37,12.02Z" style="fill: #e7c237; stroke-width: 0px;"/>
  <path d="m276.84,41.64h-5.1c-13.71,0-24.82,11.11-24.82,24.82v163.98c0,13.71,11.12,24.83,24.83,24.83h5.09c13.71,0,24.82-11.11,24.82-24.82V66.46c0-13.71-11.11-24.82-24.82-24.82Z" style="fill: #e7c237; stroke-width: 0px;"/>
  <path d="m384.76,350.96c-1.08,2.13-2.67,4.13-4.82,5.92-3.88,3.22-8.72,5.02-13.56,6.42-20.94,6.07-43.44,5.68-64.72.94-77.22-17.21-146.11-80.49-180.12-150.23-.36-.73-.71-1.46-1.06-2.19-5.32-11.16-11.88-34.73-26.44-18.16-9.53,10.85-14.79,24.68-17.09,38.79-1.17,7.22-1.6,14.54-1.5,21.85.09,6.41.99,12.82.94,19.23-.04,5.04-1.22,10.38-4.81,13.91-3.76,3.71-9.41,4.72-14.69,4.73-8.78.02-17.56.08-26.34-.09-5.86-.11-11.15.37-16.22-2.99-5.49-3.63-8.9-9.21-10.47-15.56-2.92-11.85-1.28-25.5-1.29-37.62-.01-13.39-.02-26.77-.03-40.16-.02-26.77-.05-53.55-.07-80.32-.03-27.58-.08-55.15-.08-82.73,0-5.57.08-11.47,2.98-16.24,2.47-4.05,6.59-6.58,10.98-8.09,4.98-1.72,10.12-1.92,15.35-2.11,4.39-.16,8.79-.16,13.18.01,3.48.13,6.95.11,10.43.34,3.8.24,7.3.95,10.4,3.3,4.21,3.19,6.12,8.27,7.31,13.23,1.4,5.85,1.57,11.93,1.56,17.92v.7c-.09,19.47-.17,38.93-.27,58.4,0,1.66,0,3.42.78,4.9,3.02,5.81,11.88,1.46,16.18-3.46,19.31-22.16,33.9-48.53,55.89-68.02,22-19.5,55.41-30.84,80.91-16.21,2.08,1.21,4.16,2.63,5.38,4.71,5.81,9.88-4.5,19.03-10.58,25.7-13.94,15.31-26.37,32.01-36.93,49.83-5.28,8.91-10.09,18.09-14.39,27.5-4.34,9.5-9.23,19.56-5.18,30.09,4.73,12.31,12.63,24.6,19.25,36.03,12.16,21,26.18,41.02,42.89,58.66,27.59,29.12,63.27,51.76,102.84,58.32,13.27,2.2,27.24,2.72,39.04,9.18,11.19,6.1,20.38,21.8,14.38,33.57Z" style="fill: #e7c237; stroke-width: 0px;"/>
  <g>
    <path d="m426.35,364.98c-4.58-2.68-8.19-6.3-10.83-10.87-2.64-4.57-3.96-9.58-3.96-15.05s1.32-10.49,3.96-15.05c2.64-4.57,6.24-8.17,10.81-10.81,4.57-2.64,9.64-3.96,15.22-3.96,3.39,0,6.64.52,9.74,1.56,3.1,1.04,5.91,2.5,8.43,4.39.46.36.7.77.7,1.23,0,.36-.14.71-.41,1.07l-6.65,8.7c-.38.47-.79.7-1.23.7-.36,0-.71-.12-1.07-.37-1.39-.96-2.91-1.72-4.55-2.28s-3.3-.84-4.96-.84c-2.65,0-5.13.69-7.42,2.07-2.3,1.38-4.14,3.28-5.52,5.68-1.38,2.41-2.07,5.06-2.07,7.96s.69,5.55,2.07,7.96c1.38,2.41,3.23,4.31,5.54,5.7,2.31,1.39,4.78,2.09,7.4,2.09,1.89,0,3.55-.24,4.98-.72,1.44-.48,2.97-1.31,4.61-2.48.38-.25.75-.37,1.11-.37.46,0,.88.23,1.23.7l6.52,8.74c.3.44.45.82.45,1.15,0,.38-.21.74-.62,1.07-2.54,1.94-5.37,3.44-8.49,4.49-3.12,1.05-6.39,1.58-9.8,1.58-5.55,0-10.62-1.34-15.2-4.02Z" style="fill: #c7932b; stroke-width: 0px;"/>
    <path d="m468.49,366.33v-54.35c0-1.09.55-1.64,1.64-1.64h23.26c3.96,0,7.48.83,10.54,2.48,3.06,1.65,5.45,3.96,7.16,6.93,1.71,2.97,2.56,6.37,2.56,10.19s-.75,6.8-2.26,9.41c-1.5,2.61-3.61,4.74-6.32,6.38l10.17,20.3c.16.33.25.62.25.86,0,.33-.13.59-.39.78-.26.19-.61.29-1.05.29h-13.13c-.9,0-1.55-.41-1.93-1.23l-8.04-17.19c-.41.03-1,.04-1.76.04h-5.95v16.74c0,1.09-.55,1.64-1.64,1.64h-11.48c-1.09,0-1.64-.55-1.64-1.64Zm26.95-30.23c1.01-.66,1.81-1.53,2.38-2.62s.86-2.26.86-3.49c0-2.16-.63-3.82-1.89-4.98-1.26-1.16-2.8-1.74-4.64-1.74h-8.9v13.82h8.78c1.26,0,2.39-.33,3.4-.98Z" style="fill: #c7932b; stroke-width: 0px;"/>
    <path d="m534.38,364.98c-4.58-2.68-8.19-6.3-10.83-10.87-2.64-4.57-3.96-9.58-3.96-15.05s1.32-10.49,3.96-15.05c2.64-4.57,6.24-8.17,10.81-10.81,4.57-2.64,9.64-3.96,15.22-3.96s10.61,1.33,15.18,3.98c4.57,2.65,8.17,6.26,10.81,10.81,2.64,4.55,3.96,9.56,3.96,15.03s-1.32,10.45-3.96,15.03c-2.64,4.58-6.25,8.21-10.83,10.89-4.58,2.68-9.63,4.02-15.16,4.02s-10.62-1.34-15.2-4.02Zm22.62-12.2c2.3-1.38,4.13-3.28,5.5-5.7,1.37-2.42,2.05-5.08,2.05-7.98s-.69-5.55-2.07-7.96c-1.38-2.41-3.22-4.3-5.52-5.68-2.3-1.38-4.76-2.07-7.38-2.07s-5.13.69-7.42,2.07-4.14,3.28-5.52,5.68c-1.38,2.41-2.07,5.06-2.07,7.96s.69,5.55,2.07,7.96c1.38,2.41,3.23,4.31,5.54,5.7,2.31,1.39,4.78,2.09,7.4,2.09s5.13-.69,7.42-2.07Z" style="fill: #c7932b; stroke-width: 0px;"/>
    <path d="m600.05,364.98c-4.58-2.68-8.19-6.3-10.83-10.87-2.64-4.57-3.96-9.58-3.96-15.05s1.32-10.49,3.96-15.05c2.64-4.57,6.24-8.17,10.81-10.81,4.57-2.64,9.64-3.96,15.22-3.96,3.39,0,6.64.52,9.74,1.56,3.1,1.04,5.91,2.5,8.43,4.39.46.36.7.77.7,1.23,0,.36-.14.71-.41,1.07l-6.65,8.7c-.38.47-.79.7-1.23.7-.36,0-.71-.12-1.07-.37-1.39-.96-2.91-1.72-4.55-2.28s-3.3-.84-4.96-.84c-2.65,0-5.13.69-7.42,2.07s-4.14,3.28-5.52,5.68c-1.38,2.41-2.07,5.06-2.07,7.96s.69,5.55,2.07,7.96c1.38,2.41,3.23,4.31,5.54,5.7,2.31,1.39,4.78,2.09,7.4,2.09,1.89,0,3.55-.24,4.98-.72,1.44-.48,2.97-1.31,4.61-2.48.38-.25.75-.37,1.11-.37.46,0,.88.23,1.23.7l6.52,8.74c.3.44.45.82.45,1.15,0,.38-.21.74-.62,1.07-2.54,1.94-5.37,3.44-8.49,4.49-3.12,1.05-6.39,1.58-9.8,1.58-5.55,0-10.62-1.34-15.2-4.02Z" style="fill: #c7932b; stroke-width: 0px;"/>
    <path d="m655.32,367.97h-11.48c-1.09,0-1.64-.55-1.64-1.64v-54.35c0-1.09.55-1.64,1.64-1.64h11.48c1.09,0,1.64.55,1.64,1.64v18.79h21.04v-18.79c0-1.09.55-1.64,1.64-1.64h11.48c1.09,0,1.64.55,1.64,1.64v54.35c0,1.09-.55,1.64-1.64,1.64h-11.48c-1.09,0-1.64-.55-1.64-1.64v-21.45h-21.04v21.45c0,1.09-.55,1.64-1.64,1.64Z" style="fill: #c7932b; stroke-width: 0px;"/>
    <path d="m745.11,367.97h-39.21c-1.09,0-1.64-.55-1.64-1.64v-54.35c0-1.09.55-1.64,1.64-1.64h38.6c1.09,0,1.64.55,1.64,1.64v10.05c0,1.09-.55,1.64-1.64,1.64h-25.47v8.98h19.57c1.09,0,1.64.55,1.64,1.64v9.23c0,1.09-.55,1.64-1.64,1.64h-19.57v9.47h26.09c1.09,0,1.64.55,1.64,1.64v10.05c0,1.09-.55,1.64-1.64,1.64Z" style="fill: #c7932b; stroke-width: 0px;"/>
    <path d="m779.65,367.97h-11.48c-1.09,0-1.64-.55-1.64-1.64v-42.25h-13.82c-1.09,0-1.64-.55-1.64-1.64v-10.46c0-1.09.55-1.64,1.64-1.64h42.45c1.09,0,1.64.55,1.64,1.64v10.46c0,1.09-.55,1.64-1.64,1.64h-13.86v42.25c0,1.09-.55,1.64-1.64,1.64Z" style="fill: #c7932b; stroke-width: 0px;"/>
  </g>
</svg>